<?xml version="1.0" encoding="utf-8"?>
<!-- Generator: Adobe Illustrator 26.3.1, SVG Export Plug-In . SVG Version: 6.00 Build 0)  -->
<svg version="1.1" id="Layer_1" xmlns="http://www.w3.org/2000/svg" xmlns:xlink="http://www.w3.org/1999/xlink" x="0px" y="0px"
	 viewBox="0 0 810 1560" style="enable-background:new 0 0 810 1560;" xml:space="preserve">
<style type="text/css">
	.st0{fill:none;}
	.st1{fill:#11253E;}
	.st2{fill:#FFFFFF;}
	.st3{fill:#315377;}
	.st4{fill:none;stroke:#E0DFDF;stroke-width:7;stroke-linecap:round;stroke-miterlimit:10;}
</style>
<g>
	<g>
		<path class="st0" d="M38.1,1445.6c0,43,34.9,77.8,77.9,77.8h578c43,0,77.9-34.8,77.9-77.8l0-11.2H38.1V1445.6z"/>
		<path class="st0" d="M771.8,113.9c-0.3-42.8-35.1-77.3-77.9-77.3h-113c-0.2,0-0.5,0-0.7,0c-5.4,0.3-9.6,4.9-9.3,10.4
			c0,1.6-0.1,8.8-0.2,10.4C569.1,76,556.2,88.1,539,88.1H291c-17,0-29.8-11.5-31.7-29.8C259.1,56.5,259,49,259,47
			c0-6.5-4-10.4-10-10.4H116c-41.4,0-75.6,32.4-77.8,73.9c-0.1,1.4-0.1,2.7-0.1,4.1V149h733.7L771.8,113.9z"/>
		<path class="st1" d="M802.7,322.6V110.7c0-61-50.8-104.9-105-104.9H112.3c-54.3,0-105,44-105,104.9v78.1c-2,0.7-3.4,2.6-3.4,4.8
			V236c0,2.2,1.4,4.1,3.4,4.8V282c-2,0.7-3.4,2.6-3.4,4.8V368c0,2.2,1.4,4.1,3.4,4.8v31c-2,0.7-3.4,2.6-3.4,4.8v81.2
			c0,2.2,1.4,4.1,3.4,4.8v954.6c0,61,50.8,104.9,105,104.9h585.4c54.3,0,105-44,105-104.9V472.5c2-0.7,3.4-2.6,3.4-4.8V327.4
			C806.1,325.2,804.8,323.4,802.7,322.6z M780.7,1434.4h-8.8l0,11.2c0,43-34.9,77.8-77.9,77.8H116c-43,0-77.9-34.8-77.9-77.8v-11.2
			H31V149h7.1v-34.4c0-1.4,0-2.7,0.1-4.1C40.4,69,74.6,36.6,116,36.6h133c6,0,10,3.9,10,10.4c0,1.9,0.1,9.4,0.3,11.3
			c1.9,18.3,14.7,29.8,31.7,29.8h248c17.2,0,30.1-12.1,31.7-30.8c0.1-1.6,0.2-8.8,0.2-10.4c-0.3-5.5,3.9-10.1,9.3-10.4
			c0.2,0,0.5,0,0.7,0h113c42.8,0,77.6,34.5,77.9,77.3l0,35.2h8.9V1434.4z"/>
		<polygon class="st0" points="38.1,149 38.1,1434.4 771.9,1434.4 771.8,149 		"/>
	</g>
	<path class="st0" d="M39,1445.6c0,43,34.9,77.8,77.9,77.8h578c43,0,77.9-34.8,77.9-77.8l-0.1-0.1V148.9H39V1445.6z"/>
	<path class="st1" d="M697.7,12.6L697.7,12.6H112.3C58.1,12.5,14.1,56.5,14,110.7l0,0v1338.5c0,54.2,44,98.2,98.2,98.2l0,0h585.5
		c54.2,0.1,98.2-43.9,98.3-98.1l0,0V110.7C796,56.5,752,12.6,697.7,12.6z M780.7,148.9L780.7,148.9l0,1285.4h-0.1v19.2l0.1,0.1
		c0,43-34.9,77.8-77.9,77.8H108.9c-43,0-77.9-34.8-77.9-77.8v-19.3l0,0V148.9l0,0v-42.4c0-1.4,0-2.7,0.1-4.1
		c2.2-41.4,36.4-73.8,77.8-73.8h141c6,0,10,3.9,10,10.4c0,1.9,0,9.4,0.3,11.3c1.9,18.3,14.7,29.8,31.7,29.8H540
		c17.2,0,30.1-12.2,31.6-30.8c0.2-1.6,0.2-8.8,0.2-10.4l0,0c-0.3-5.5,3.9-10.1,9.4-10.4c0.2,0,0.5,0,0.7,0h121
		c42.8,0,77.6,34.6,77.8,77.4V148.9z"/>
	<path class="st2" d="M780.7,106c-0.2-42.8-35-77.4-77.8-77.4h-121c-0.2,0-0.5,0-0.7,0c-5.5,0.3-9.6,4.9-9.4,10.4
		c0,1.6-0.1,8.8-0.2,10.4C570.1,68,557.2,80.2,540,80.2H291.9c-17,0-29.8-11.5-31.7-29.8c-0.1-2.1-0.2-9.5-0.3-11.3
		c-0.4-6.5-4-10.4-10-10.4h-141c-41.4,0-75.6,32.4-77.8,73.8c-0.1,1.4-0.1,2.7-0.1,4.1V149h5.8H39h734.6l0,0h7.1V106z"/>
	<path class="st3" d="M478.9,56.2c2.4,0,4.3-1.9,4.3-4.3c0-2.4-1.9-4.3-4.3-4.3s-4.3,1.9-4.3,4.3C474.6,54.2,476.5,56.2,478.9,56.2
		L478.9,56.2z"/>
	<path class="st3" d="M438.9,57.5h-65.6c-3.1,0-5.6-2.5-5.6-5.6s2.5-5.6,5.6-5.6l0,0h65.6c3.1,0,5.6,2.5,5.6,5.6
		C444.5,54.9,442,57.4,438.9,57.5z"/>
	<path class="st2" d="M31,1453.6c0,43,34.9,77.8,77.9,77.8h593.9c43,0,77.9-34.8,77.9-77.8l0,0l0-19.3H31V1453.6z"/>
	<line class="st4" x1="283.5" y1="1487.9" x2="528.2" y2="1487.9"/>
</g>
</svg>
